HIERARCHY
ROOT root
{
	OFFSET 0.000000 0.000000 0.000000
	CHANNELS 6 Xposition Yposition Zposition Zrotation Yrotation Xrotation
	JOINT lhip
	{
		OFFSET 0.058581 -0.082280 -0.017664
		CHANNELS 3 Zrotation Yrotation Xrotation
		JOINT lknee
		{
			OFFSET 0.043451 -0.386469 0.008037
			CHANNELS 3 Zrotation Yrotation Xrotation
			JOINT lankle
			{
				OFFSET -0.014790 -0.426874 -0.037428
				CHANNELS 3 Zrotation Yrotation Xrotation
				JOINT ltoe
				{
					OFFSET 0.041054 -0.060286 0.122042
					CHANNELS 3 Zrotation Yrotation Xrotation
					End Site
					{
						OFFSET 0.000000 0.000000 0.000000
					}
				}
			}
		}
	}
	JOINT rhip
	{
		OFFSET -0.060310 -0.090513 -0.013543
		CHANNELS 3 Zrotation Yrotation Xrotation
		JOINT rknee
		{
			OFFSET -0.043257 -0.383688 -0.004843
			CHANNELS 3 Zrotation Yrotation Xrotation
			JOINT rankle
			{
				OFFSET 0.019056 -0.420046 -0.034562
				CHANNELS 3 Zrotation Yrotation Xrotation
				JOINT rtoe
				{
					OFFSET -0.034840 -0.062106 0.130323
					CHANNELS 3 Zrotation Yrotation Xrotation
					End Site
					{
						OFFSET 0.000000 0.000000 0.000000
					}
				}
			}
		}
	}
	JOINT lowerback
	{
		OFFSET 0.004439 0.124404 -0.038385
		CHANNELS 3 Zrotation Yrotation Xrotation
		JOINT upperback
		{
			OFFSET 0.004488 0.137956 0.026820
			CHANNELS 3 Zrotation Yrotation Xrotation
			JOINT chest
			{
				OFFSET -0.002265 0.056032 0.002855
				CHANNELS 3 Zrotation Yrotation Xrotation
				JOINT lowerneck
				{
					OFFSET -0.013390 0.211636 -0.033468
					CHANNELS 3 Zrotation Yrotation Xrotation
					JOINT upperneck
					{
						OFFSET 0.010113 0.088937 0.050410
						CHANNELS 3 Zrotation Yrotation Xrotation
						End Site
						{
							OFFSET 0.000000 0.000000 0.000000
						}
					}
				}
				JOINT lclavicle
				{
					OFFSET 0.071702 0.114000 -0.018898
					CHANNELS 3 Zrotation Yrotation Xrotation
					JOINT lshoulder
					{
						OFFSET 0.122921 0.045205 -0.019046
						CHANNELS 3 Zrotation Yrotation Xrotation
						JOINT lelbow
						{
							OFFSET 0.255332 -0.015649 -0.022946
							CHANNELS 3 Zrotation Yrotation Xrotation
							JOINT lwrist
							{
								OFFSET 0.265709 0.012698 -0.007375
								CHANNELS 3 Zrotation Yrotation Xrotation
								End Site
								{
									OFFSET 0.000000 0.000000 0.000000
								}
							}
						}
					}
				}
				JOINT rclavicle
				{
					OFFSET -0.082954 0.112472 -0.023707
					CHANNELS 3 Zrotation Yrotation Xrotation
					JOINT rshoulder
					{
						OFFSET -0.113228 0.046853 -0.008472
						CHANNELS 3 Zrotation Yrotation Xrotation
						JOINT relbow
						{
							OFFSET -0.260127 -0.014369 -0.031269
							CHANNELS 3 Zrotation Yrotation Xrotation
							JOINT rwrist
							{
								OFFSET -0.269108 0.006794 -0.006027
								CHANNELS 3 Zrotation Yrotation Xrotation
								End Site
								{
									OFFSET 0.000000 0.000000 0.000000
								}
							}
						}
					}
				}
			}
		}
	}
}
MOTION
Frames: 8
Frame Time: 0.033333
0.454910 0.278877 0.903649 99.840819 1.262193 68.702852 -3.478482 -7.222446 -25.542051 -10.983788 -0.740652 50.890351 0.357261 9.358647 -18.211150 0.000000 -0.000000 0.000000 -2.098932 0.190751 -31.484299 -0.917719 -4.677567 79.735293 2.291571 -10.661910 3.767296 0.000000 -0.000000 0.000000 0.984481 0.423378 22.491876 1.053545 2.655215 -7.252786 0.155479 -0.283533 3.355089 -2.518463 -9.603147 -0.146779 2.753529 1.989903 -2.487903 -19.836495 14.368726 0.703003 -49.967051 9.813315 12.435991 -138.302233 -74.781236 162.915046 15.482474 -12.135668 -20.006652 16.849928 -4.699570 -2.546365 50.547372 -2.481184 13.266332 -16.283766 77.843809 -1.913061 -9.016420 14.475270 -2.712185 
0.530593 0.282504 0.908808 98.376357 0.900666 68.647241 -3.949210 -7.282278 -19.687119 -11.398474 -4.163962 50.272232 2.194799 7.702522 -19.854414 0.000000 -0.000000 0.000000 -3.211602 0.431098 -35.577407 -3.722696 -6.183984 79.905953 -1.251393 -17.688300 2.387786 0.000000 -0.000000 0.000000 0.218310 -0.955450 21.662027 1.120909 3.634661 -7.413019 0.311053 -0.443339 4.298986 -3.547091 -9.443680 1.192019 2.365279 3.354747 -3.600016 -18.370757 15.631428 2.222873 -52.180123 10.064826 12.485471 -136.949194 -73.343573 161.421552 16.508119 -10.878738 -23.678841 16.207314 -5.411480 -3.572343 51.490559 -1.671872 14.620231 -42.349822 84.277270 -28.298979 -8.959593 13.138648 -6.023418 
0.604579 0.285910 0.903896 97.532418 0.946757 68.720488 -4.748838 -4.330851 -15.398457 -11.242536 -5.030817 52.662964 6.783097 9.519349 -26.100112 0.000000 -0.000000 0.000000 -3.736914 0.240094 -37.920587 -3.262798 -7.034407 69.042142 0.837820 -15.548380 -2.399252 0.000000 -0.000000 0.000000 0.157914 -2.323971 22.527000 0.757632 3.788972 -9.743263 0.371420 -0.627503 6.430150 -2.906102 -7.451732 -2.148345 1.216186 2.787558 -0.394031 -18.947677 16.249363 0.881061 -51.385912 9.077015 14.014552 -133.577100 -72.001955 157.055909 17.501389 -10.501614 -23.798999 17.882587 -6.821371 -6.031208 50.736078 -1.544959 16.367245 -120.876498 85.026575 -107.055125 -9.772397 13.204928 -6.839086 
0.690410 0.288794 0.895110 99.048194 1.397501 70.334700 -4.527660 -1.301863 -13.203996 -8.789270 -1.964811 54.837633 9.069761 11.115688 -30.328834 0.000000 -0.000000 0.000000 -5.068772 -0.022612 -37.478922 0.052239 -8.730565 46.991971 8.211655 -9.334017 -5.234323 0.000000 -0.000000 0.000000 0.600030 -2.847787 21.874740 2.038853 1.725413 -7.219229 -0.843052 -1.219454 4.119505 -0.091372 -2.306847 -5.733725 -2.877014 -0.830689 0.952792 -21.415531 16.524630 -0.583675 -49.505816 3.571628 16.711897 -120.376031 -73.817945 141.696700 17.342996 -13.647592 -22.078501 22.028484 -10.291117 -7.132060 49.102657 0.149827 18.969647 -140.672519 79.897187 -124.210876 -9.334788 14.111385 -6.859824 
0.742210 0.290162 0.892422 100.397019 1.617990 71.425746 -4.655600 -0.453710 -11.071662 -8.543653 -3.521510 55.919993 9.036362 10.810085 -33.318444 0.000000 -0.000000 0.000000 -4.669228 -1.031423 -35.928021 -0.315873 -9.144880 36.898483 9.086407 -9.462149 -3.839609 0.000000 -0.000000 0.000000 0.916490 -3.017927 20.760534 2.289547 0.561874 -6.922516 -0.700681 -1.944732 3.770992 -0.527304 -2.101694 -5.668664 -3.044203 -0.375510 0.302928 -21.666867 15.140563 -0.080173 -50.982653 1.250939 16.210561 -106.959671 -75.139302 128.519851 16.734839 -14.130899 -20.912091 21.927971 -11.041304 -6.810121 50.504795 -0.860626 18.726721 -140.746861 78.780374 -123.507600 -9.876221 14.205292 -7.503036 
0.812789 0.290268 0.891391 102.325485 1.814583 72.759448 -4.384883 -0.662966 -8.500435 -9.779098 -5.778063 58.891602 7.937831 10.476079 -35.870217 0.000000 -0.000000 0.000000 -3.355134 -1.724141 -33.065167 -1.501127 -7.954469 30.577763 8.565411 -8.890561 -3.009918 0.000000 -0.000000 0.000000 1.001793 -2.544036 18.022730 2.824689 -1.094541 -5.937235 -0.673200 -3.361847 3.595804 -0.655062 -2.051223 -4.635182 -2.905320 0.267100 -0.465332 -21.560555 13.324869 0.762412 -52.727167 -0.416967 15.761333 -90.564582 -76.452166 113.841936 17.888215 -13.782377 -17.766126 21.612551 -11.926546 -6.538740 52.361056 -2.512841 18.064820 -137.557383 80.041376 -119.684736 -10.595013 13.430315 -10.875116 
0.882313 0.291104 0.889799 103.555644 1.325249 74.083423 -3.766370 -1.154058 -7.740857 -10.943777 -4.680297 64.013413 5.621057 8.635645 -33.581525 0.000000 -0.000000 0.000000 -2.710555 -0.533983 -29.538633 -1.041860 -5.158901 27.981513 9.164987 -6.560646 0.610120 0.000000 -0.000000 0.000000 0.573563 -2.395051 15.590625 3.167250 -2.152687 -5.207635 -0.889357 -3.768448 3.037179 -0.747600 -2.000025 -3.712396 -2.403581 0.654757 -0.808104 -21.786290 12.202319 0.908370 -53.016100 -0.959749 16.342514 -81.207596 -76.998272 104.005091 19.675557 -13.603097 -17.758603 21.324750 -13.100995 -6.091406 53.143299 -3.948485 17.878971 -133.225188 82.360653 -114.803399 -11.049672 12.591100 -12.782589 
0.943914 0.290348 0.888272 102.984720 1.507319 74.974278 -1.847195 -0.797878 -9.447111 -12.354120 -3.492119 71.157207 3.665752 5.985430 -26.253593 0.000000 -0.000000 0.000000 -1.213571 1.682527 -32.369200 -0.721938 -2.999329 35.956725 2.876646 -8.136099 6.356448 0.000000 -0.000000 0.000000 0.648112 -2.940682 15.532034 3.612461 -1.181803 -5.478595 -0.936330 -3.703875 2.606292 -0.527072 -1.958242 -5.799641 -2.609005 1.158361 1.326915 -23.220717 12.420528 0.175819 -52.353448 -1.623862 16.175188 -75.107690 -77.015729 98.051699 18.565197 -13.761015 -18.204442 22.087505 -13.297257 -5.884182 51.992284 -4.641278 18.362898 -118.251131 83.958097 -99.197896 -10.052622 12.201605 -13.403033 
